<?xml version="1.0" standalone="no"?>
<!DOCTYPE svg PUBLIC "-//W3C//DTD SVG 20010904//EN"
 "http://www.w3.org/TR/2001/REC-SVG-20010904/DTD/svg10.dtd">
<svg version="1.0" xmlns="http://www.w3.org/2000/svg"
 width="512.000000pt" height="512.000000pt" viewBox="0 0 512.000000 512.000000"
 preserveAspectRatio="xMidYMid meet">

<g transform="translate(0.000000,512.000000) scale(0.100000,-0.100000)"
fill="var(--text)" stroke="none">
<path d="M2310 5109 c-406 -39 -813 -183 -1150 -407 -171 -114 -268 -193 -400
-324 -410 -406 -657 -907 -742 -1503 -17 -118 -17 -512 0 -630 84 -592 328
-1088 734 -1495 329 -330 742 -564 1188 -674 190 -47 320 -65 515 -72 514 -20
861 138 1004 458 116 260 60 567 -147 801 -69 78 -96 129 -111 210 -20 109 15
221 96 308 55 59 114 92 197 109 117 24 226 -9 331 -101 174 -153 339 -219
546 -219 302 0 547 181 659 488 59 162 74 263 74 507 1 223 -7 311 -45 500
-132 658 -530 1249 -1097 1626 -488 324 -1077 473 -1652 418z m570 -314 c433
-66 842 -259 1168 -551 397 -356 658 -834 737 -1349 23 -149 30 -372 16 -492
-40 -338 -176 -518 -402 -531 -137 -8 -246 33 -370 139 -152 131 -276 181
-454 183 -133 1 -191 -12 -313 -70 -76 -37 -107 -59 -170 -122 -130 -130 -196
-289 -195 -472 1 -171 54 -309 173 -445 130 -150 175 -296 136 -443 -63 -236
-323 -356 -737 -339 -563 23 -1070 240 -1477 631 -192 185 -331 377 -456 628
-392 786 -287 1731 271 2423 382 474 945 773 1563 829 92 8 408 -4 510 -19z"/>
<path d="M2145 4496 c-84 -21 -147 -57 -211 -121 -177 -176 -177 -453 1 -630
258 -259 695 -118 757 244 24 141 -22 281 -127 387 -112 113 -269 158 -420
120z m175 -306 c45 -23 80 -80 80 -130 0 -76 -74 -150 -151 -150 -46 0 -108
39 -130 82 -37 72 -14 151 57 194 48 29 92 30 144 4z"/>
<path d="M1245 3596 c-84 -21 -147 -57 -211 -121 -177 -176 -177 -453 1 -630
258 -259 695 -118 757 244 24 141 -22 281 -127 387 -112 113 -269 158 -420
120z m175 -306 c45 -23 80 -80 80 -130 0 -76 -74 -150 -151 -150 -46 0 -108
39 -130 82 -37 72 -14 151 57 194 48 29 92 30 144 4z"/>
<path d="M3955 3296 c-84 -21 -147 -57 -211 -121 -177 -176 -177 -453 1 -630
258 -259 695 -118 757 244 24 141 -22 281 -127 387 -112 113 -269 158 -420
120z m175 -306 c45 -23 80 -80 80 -130 0 -76 -74 -150 -151 -150 -46 0 -108
39 -130 82 -37 72 -14 151 57 194 48 29 92 30 144 4z"/>
<path d="M1245 2396 c-84 -21 -147 -57 -211 -121 -177 -176 -177 -453 1 -630
258 -259 695 -118 757 244 24 141 -22 281 -127 387 -112 113 -269 158 -420
120z m175 -306 c45 -23 80 -80 80 -130 0 -76 -74 -150 -151 -150 -46 0 -108
39 -130 82 -37 72 -14 151 57 194 48 29 92 30 144 4z"/>
<path d="M2145 1496 c-84 -21 -147 -57 -211 -121 -177 -176 -177 -453 1 -630
258 -259 695 -118 757 244 24 141 -22 281 -127 387 -112 113 -269 158 -420
120z m175 -306 c45 -23 80 -80 80 -130 0 -76 -74 -150 -151 -150 -46 0 -108
39 -130 82 -37 72 -14 151 57 194 48 29 92 30 144 4z"/>
</g>
</svg>
